<mxfile host="app.diagrams.net" modified="2022-06-28T01:39:46.083Z" agent="5.0 (X11; Linux x86_64) AppleWebKit/537.36 (KHTML, like Gecko) Chrome/102.0.0.0 Safari/537.36" etag="egtawX58D3Z0VoiMX0oU" version="20.0.2" type="github" pages="3">
  <diagram id="Wr5jitZPMpajhuJiReHx" name="routeEfficiency">
    <mxGraphModel dx="1590" dy="773" grid="1" gridSize="10" guides="1" tooltips="1" connect="1" arrows="1" fold="1" page="1" pageScale="1" pageWidth="827" pageHeight="1169" math="0" shadow="0">
      <root>
        <mxCell id="0" />
        <mxCell id="1" parent="0" />
        <mxCell id="WA3SYPrz2VSBhLwr0WN5-3" value="" style="curved=1;endArrow=classic;html=1;rounded=0;" parent="1" edge="1">
          <mxGeometry width="50" height="50" relative="1" as="geometry">
            <mxPoint x="40" y="230" as="sourcePoint" />
            <mxPoint x="850" y="90" as="targetPoint" />
            <Array as="points">
              <mxPoint x="150" y="330" />
              <mxPoint x="440" y="420" />
              <mxPoint x="400" y="210" />
              <mxPoint x="460" y="110" />
              <mxPoint x="610" y="260" />
              <mxPoint x="720" y="330" />
            </Array>
          </mxGeometry>
        </mxCell>
        <mxCell id="WA3SYPrz2VSBhLwr0WN5-5" value="" style="endArrow=none;dashed=1;html=1;rounded=0;" parent="1" edge="1">
          <mxGeometry width="50" height="50" relative="1" as="geometry">
            <mxPoint x="40" y="230" as="sourcePoint" />
            <mxPoint x="850" y="90" as="targetPoint" />
          </mxGeometry>
        </mxCell>
        <mxCell id="WA3SYPrz2VSBhLwr0WN5-6" value="&lt;font style=&quot;font-size: 36px;&quot;&gt;base line&lt;/font&gt;" style="text;html=1;strokeColor=none;fillColor=none;align=center;verticalAlign=middle;whiteSpace=wrap;rounded=0;" parent="1" vertex="1">
          <mxGeometry x="140" y="150" width="230" height="30" as="geometry" />
        </mxCell>
        <mxCell id="WA3SYPrz2VSBhLwr0WN5-7" value="focal route" style="text;html=1;strokeColor=none;fillColor=none;align=center;verticalAlign=middle;whiteSpace=wrap;rounded=0;fontSize=36;" parent="1" vertex="1">
          <mxGeometry x="420" y="370" width="300" height="30" as="geometry" />
        </mxCell>
        <mxCell id="WA3SYPrz2VSBhLwr0WN5-8" value="" style="rounded=0;whiteSpace=wrap;html=1;fontSize=36;" parent="1" vertex="1">
          <mxGeometry x="120" y="550" width="790" height="240" as="geometry" />
        </mxCell>
        <mxCell id="WA3SYPrz2VSBhLwr0WN5-10" value="calTotalDistanceOfFocalRoute（）" style="rounded=1;whiteSpace=wrap;html=1;fontSize=36;" parent="1" vertex="1">
          <mxGeometry x="230" y="605" width="570" height="60" as="geometry" />
        </mxCell>
        <mxCell id="WA3SYPrz2VSBhLwr0WN5-11" value="calEfficiencyOfRoute" style="rounded=1;whiteSpace=wrap;html=1;fontSize=36;" parent="1" vertex="1">
          <mxGeometry x="230" y="700" width="570" height="60" as="geometry" />
        </mxCell>
      </root>
    </mxGraphModel>
  </diagram>
  <diagram id="nsE2VJRiSPMusF5cjeXa" name="routeSimilarity">
    <mxGraphModel dx="1590" dy="773" grid="1" gridSize="10" guides="1" tooltips="1" connect="1" arrows="1" fold="1" page="1" pageScale="1" pageWidth="827" pageHeight="1169" math="0" shadow="0">
      <root>
        <mxCell id="0" />
        <mxCell id="1" parent="0" />
        <mxCell id="381nLtU7JfaJWyb5kvEz-1" value="" style="curved=1;endArrow=classic;html=1;rounded=0;startArrow=none;" edge="1" parent="1" source="381nLtU7JfaJWyb5kvEz-7">
          <mxGeometry width="50" height="50" relative="1" as="geometry">
            <mxPoint x="40" y="230" as="sourcePoint" />
            <mxPoint x="890" y="110" as="targetPoint" />
            <Array as="points">
              <mxPoint x="460" y="110" />
              <mxPoint x="610" y="260" />
              <mxPoint x="720" y="330" />
            </Array>
          </mxGeometry>
        </mxCell>
        <mxCell id="381nLtU7JfaJWyb5kvEz-2" value="" style="curved=1;endArrow=classic;html=1;rounded=0;" edge="1" parent="1">
          <mxGeometry width="50" height="50" relative="1" as="geometry">
            <mxPoint x="40" y="450" as="sourcePoint" />
            <mxPoint x="950" y="410" as="targetPoint" />
            <Array as="points">
              <mxPoint x="210" y="590" />
              <mxPoint x="400" y="590" />
              <mxPoint x="460" y="470" />
              <mxPoint x="570" y="510" />
              <mxPoint x="680" y="470" />
              <mxPoint x="780" y="590" />
              <mxPoint x="820" y="450" />
            </Array>
          </mxGeometry>
        </mxCell>
        <mxCell id="381nLtU7JfaJWyb5kvEz-4" value="baseLine" style="text;html=1;strokeColor=none;fillColor=none;align=center;verticalAlign=middle;whiteSpace=wrap;rounded=0;fontSize=36;" vertex="1" parent="1">
          <mxGeometry x="320" y="610" width="270" height="30" as="geometry" />
        </mxCell>
        <mxCell id="381nLtU7JfaJWyb5kvEz-5" value="focalLine" style="text;html=1;strokeColor=none;fillColor=none;align=center;verticalAlign=middle;whiteSpace=wrap;rounded=0;fontSize=36;" vertex="1" parent="1">
          <mxGeometry x="250" y="170" width="190" height="30" as="geometry" />
        </mxCell>
        <mxCell id="381nLtU7JfaJWyb5kvEz-6" value="" style="ellipse;whiteSpace=wrap;html=1;aspect=fixed;fontSize=36;" vertex="1" parent="1">
          <mxGeometry x="160" y="290" width="20" height="20" as="geometry" />
        </mxCell>
        <mxCell id="381nLtU7JfaJWyb5kvEz-7" value="" style="ellipse;whiteSpace=wrap;html=1;aspect=fixed;fontSize=36;" vertex="1" parent="1">
          <mxGeometry x="460" y="120" width="20" height="20" as="geometry" />
        </mxCell>
        <mxCell id="381nLtU7JfaJWyb5kvEz-8" value="" style="curved=1;endArrow=none;html=1;rounded=0;" edge="1" parent="1" target="381nLtU7JfaJWyb5kvEz-7">
          <mxGeometry width="50" height="50" relative="1" as="geometry">
            <mxPoint x="40" y="230" as="sourcePoint" />
            <mxPoint x="890" y="110" as="targetPoint" />
            <Array as="points">
              <mxPoint x="150" y="330" />
              <mxPoint x="290" y="230" />
              <mxPoint x="400" y="210" />
            </Array>
          </mxGeometry>
        </mxCell>
        <mxCell id="381nLtU7JfaJWyb5kvEz-9" value="" style="ellipse;whiteSpace=wrap;html=1;aspect=fixed;fontSize=36;" vertex="1" parent="1">
          <mxGeometry x="800" y="190" width="20" height="20" as="geometry" />
        </mxCell>
        <mxCell id="381nLtU7JfaJWyb5kvEz-13" value="" style="endArrow=none;dashed=1;html=1;dashPattern=1 3;strokeWidth=2;rounded=0;fontSize=36;" edge="1" parent="1">
          <mxGeometry width="50" height="50" relative="1" as="geometry">
            <mxPoint x="70" y="470" as="sourcePoint" />
            <mxPoint x="170" y="300" as="targetPoint" />
          </mxGeometry>
        </mxCell>
        <mxCell id="381nLtU7JfaJWyb5kvEz-14" value="" style="endArrow=none;dashed=1;html=1;dashPattern=1 3;strokeWidth=2;rounded=0;fontSize=36;entryX=0.5;entryY=1;entryDx=0;entryDy=0;" edge="1" parent="1" target="381nLtU7JfaJWyb5kvEz-6">
          <mxGeometry width="50" height="50" relative="1" as="geometry">
            <mxPoint x="130" y="520" as="sourcePoint" />
            <mxPoint x="440" y="420" as="targetPoint" />
          </mxGeometry>
        </mxCell>
        <mxCell id="381nLtU7JfaJWyb5kvEz-15" value="" style="endArrow=none;dashed=1;html=1;dashPattern=1 3;strokeWidth=2;rounded=0;fontSize=36;exitX=0.5;exitY=1;exitDx=0;exitDy=0;" edge="1" parent="1" source="381nLtU7JfaJWyb5kvEz-7">
          <mxGeometry width="50" height="50" relative="1" as="geometry">
            <mxPoint x="390" y="470" as="sourcePoint" />
            <mxPoint x="480" y="490" as="targetPoint" />
          </mxGeometry>
        </mxCell>
        <mxCell id="381nLtU7JfaJWyb5kvEz-16" value="" style="endArrow=none;dashed=1;html=1;dashPattern=1 3;strokeWidth=2;rounded=0;fontSize=36;exitX=1;exitY=1;exitDx=0;exitDy=0;" edge="1" parent="1" source="381nLtU7JfaJWyb5kvEz-9">
          <mxGeometry width="50" height="50" relative="1" as="geometry">
            <mxPoint x="390" y="470" as="sourcePoint" />
            <mxPoint x="890" y="440" as="targetPoint" />
          </mxGeometry>
        </mxCell>
      </root>
    </mxGraphModel>
  </diagram>
  <diagram id="1AQMfttWKt1U3ZZJh7IM" name="時間目標拆解">
    <mxGraphModel dx="2417" dy="773" grid="1" gridSize="10" guides="1" tooltips="1" connect="1" arrows="1" fold="1" page="1" pageScale="1" pageWidth="827" pageHeight="1169" math="0" shadow="0">
      <root>
        <mxCell id="0" />
        <mxCell id="1" parent="0" />
        <mxCell id="fc8aUflEaOpGxCG8YMPB-1" value="&lt;font style=&quot;font-size: 24px;&quot;&gt;&lt;br&gt;目標： 最短的時間（飛行距離，飛行速度）；&lt;br&gt;兩個方面可以分析：飛行距離，飛行速度；&lt;br&gt;飛行距離：使用路徑效率公式；&lt;br&gt;飛行速度：畫出速度分佈圖；&lt;br&gt;route分析：為什麼是這條路徑；&amp;nbsp;&lt;/font&gt;" style="rounded=1;whiteSpace=wrap;html=1;" parent="1" vertex="1">
          <mxGeometry x="150" y="40" width="500" height="280" as="geometry" />
        </mxCell>
        <mxCell id="fc8aUflEaOpGxCG8YMPB-2" value="&lt;font style=&quot;font-size: 24px;&quot;&gt;用戶需求：&lt;/font&gt;" style="text;html=1;strokeColor=none;fillColor=none;align=center;verticalAlign=middle;whiteSpace=wrap;rounded=0;" parent="1" vertex="1">
          <mxGeometry x="180" y="60" width="130" height="30" as="geometry" />
        </mxCell>
        <mxCell id="fc8aUflEaOpGxCG8YMPB-3" value="&lt;h1&gt;時間：&lt;/h1&gt;&lt;p&gt;時間是結果，時間由：飛行距離和飛行速度決定；與飛行距離是反相關，與飛行速度是正相關的關係；&lt;/p&gt;" style="text;html=1;strokeColor=none;fillColor=none;spacing=5;spacingTop=-20;whiteSpace=wrap;overflow=hidden;rounded=0;fontSize=24;" parent="1" vertex="1">
          <mxGeometry x="700" y="40" width="190" height="320" as="geometry" />
        </mxCell>
        <mxCell id="fc8aUflEaOpGxCG8YMPB-4" value="&lt;h1&gt;飛行速度&lt;/h1&gt;&lt;p&gt;飛行速度的影響因素有哪些？&lt;/p&gt;" style="text;html=1;strokeColor=none;fillColor=none;spacing=5;spacingTop=-20;whiteSpace=wrap;overflow=hidden;rounded=0;fontSize=24;" parent="1" vertex="1">
          <mxGeometry x="-210" y="170" width="230" height="210" as="geometry" />
        </mxCell>
        <mxCell id="fc8aUflEaOpGxCG8YMPB-5" value="" style="endArrow=none;dashed=1;html=1;rounded=0;fontSize=24;exitX=1;exitY=0.5;exitDx=0;exitDy=0;entryX=0.2;entryY=0.643;entryDx=0;entryDy=0;entryPerimeter=0;" parent="1" source="fc8aUflEaOpGxCG8YMPB-4" target="fc8aUflEaOpGxCG8YMPB-1" edge="1">
          <mxGeometry width="50" height="50" relative="1" as="geometry">
            <mxPoint x="150" y="350" as="sourcePoint" />
            <mxPoint x="200" y="300" as="targetPoint" />
          </mxGeometry>
        </mxCell>
        <mxCell id="fc8aUflEaOpGxCG8YMPB-6" value="&lt;h1&gt;路徑分析&lt;/h1&gt;&lt;p&gt;1單飛的話：路徑的相似度會趨近於1，相似的地方，表示是上次的探索經驗，不相似的地方，說明是革新，通過對比革新率和路徑效率的提升，來判斷是良性革新多，還是非良性革新多；&lt;/p&gt;&lt;p&gt;2 雙飛的話：兩隻鴿子在某個距離範圍內是互相影響的（有一個是leader），在某個範圍之外，是互不影響的；&lt;/p&gt;" style="text;html=1;strokeColor=none;fillColor=none;spacing=5;spacingTop=-20;whiteSpace=wrap;overflow=hidden;rounded=0;fontSize=24;" parent="1" vertex="1">
          <mxGeometry x="150" y="350" width="430" height="400" as="geometry" />
        </mxCell>
        <mxCell id="fc8aUflEaOpGxCG8YMPB-9" value="" style="endArrow=none;dashed=1;html=1;dashPattern=1 3;strokeWidth=2;rounded=0;fontSize=24;exitX=0.5;exitY=0;exitDx=0;exitDy=0;entryX=0.28;entryY=0.786;entryDx=0;entryDy=0;entryPerimeter=0;" parent="1" source="fc8aUflEaOpGxCG8YMPB-6" target="fc8aUflEaOpGxCG8YMPB-1" edge="1">
          <mxGeometry width="50" height="50" relative="1" as="geometry">
            <mxPoint x="250" y="410" as="sourcePoint" />
            <mxPoint x="300" y="360" as="targetPoint" />
          </mxGeometry>
        </mxCell>
      </root>
    </mxGraphModel>
  </diagram>
</mxfile>
